<?xml version="1.0" encoding="UTF-8" standalone="no"?>
<!DOCTYPE svg PUBLIC "-//W3C//DTD SVG 1.1//EN" "http://www.w3.org/Graphics/SVG/1.1/DTD/svg11.dtd">
<svg width="100%" height="100%" viewBox="0 0 360 100" version="1.1" xmlns="http://www.w3.org/2000/svg" xmlns:xlink="http://www.w3.org/1999/xlink" xml:space="preserve" xmlns:serif="http://www.serif.com/" style="fill-rule:evenodd;clip-rule:evenodd;stroke-linejoin:round;stroke-miterlimit:2;">
    <g id="LabelLogo">
        <g>
            <path d="M65.498,76.984C66.47,80.984 71.013,86.599 71.013,86.599C71.27,83.842 71.827,82.849 72.37,82.606C70.941,80.67 68.663,77.22 67.998,74.499L65.498,76.984Z" style="fill:rgb(247,147,30);fill-rule:nonzero;"/>
            <path d="M78.991,74.013C79.364,74.116 79.731,74.237 80.091,74.377C81.406,74.086 82.761,74.019 84.098,74.177C83.934,73.343 83.695,72.526 83.384,71.734C81.681,71.899 80.107,72.716 78.991,74.013Z" style="fill:rgb(252,53,53);fill-rule:nonzero;"/>
            <path d="M76.241,80.713C76.241,80.713 74.348,78.12 73.627,83.056C73.671,83.103 73.711,83.153 73.748,83.206C79.727,90.441 88.405,88.206 88.405,88.206C88.128,87.461 87.806,86.733 87.441,86.027C83.105,86.012 78.995,84.062 76.241,80.713Z" style="fill:rgb(247,147,30);fill-rule:nonzero;"/>
            <path d="M72.37,82.606C73.034,83.52 73.498,84.099 73.498,84.099C73.532,83.727 73.575,83.384 73.627,83.07C73.398,82.856 72.877,82.37 72.37,82.606Z" style="fill:rgb(252,53,53);fill-rule:nonzero;"/>
            <path d="M76.241,80.713C78.991,84.07 83.102,86.029 87.441,86.049C85.265,81.495 81.304,78.035 76.498,76.492C77.411,75.392 78.671,74.636 80.07,74.349C79.71,74.209 79.342,74.087 78.97,73.984C80.08,72.692 81.646,71.876 83.341,71.706C81.098,66.127 76.356,66.142 76.356,66.142L67.998,74.499C68.663,77.22 70.963,80.67 72.37,82.606C72.891,82.37 73.398,82.82 73.627,83.07C74.348,78.134 76.241,80.713 76.241,80.713ZM48.527,80.592L50.199,70.67C50.034,70.577 37.706,63.627 33.106,59.777L33.106,65.27L48.527,80.592Z" style="fill:rgb(246,9,72);fill-rule:nonzero;"/>
            <path d="M74.863,49.02L70.898,49.956L58.299,31.935L69.998,31.035L84.398,44.549L86.198,46.349L74.863,49.02" style="fill:rgb(197,7,58);fill-rule:nonzero;"/>
            <path d="M68.798,59.749L72.648,56.099C71.934,53.877 62.398,26.906 32.206,14.813L18.385,27.271C18.42,27.342 18.463,27.449 18.506,27.542L28.413,18.613C58.084,30.506 67.777,56.756 68.798,59.749Z" style="fill:rgb(0,107,132);fill-rule:nonzero;"/>
            <path d="M69.306,60.742L61.091,68.07L67.263,74.242L75.02,66.456L69.306,60.742Z" style="fill:rgb(247,147,30);fill-rule:nonzero;"/>
            <path d="M77.998,63.349L72.384,56.927L61.041,68.02L61.091,68.07L68.313,61.006L74.306,67.17L77.998,63.349Z" style="fill:rgb(191,104,25);fill-rule:nonzero;"/>
            <path d="M26.884,17.185C23.464,15.621 19.721,14.886 15.963,15.042C16.171,18.73 16.745,22.389 17.677,25.963C18.61,29.538 20.734,23.571 23.892,20.828C25.054,19.758 26.061,18.532 26.884,17.185Z" style="fill:rgb(246,9,72);fill-rule:nonzero;"/>
            <path d="M30.413,13.913C20.513,11.206 16.056,11.642 16.056,11.642C15.946,12.769 15.915,13.903 15.963,15.035C19.657,15.442 23.31,16.159 26.884,17.178C26.061,18.525 25.054,19.751 23.892,20.821C26.692,18.378 29.563,15.606 30.413,13.913Z" style="fill:rgb(197,7,58);fill-rule:nonzero;"/>
            <path d="M28.413,18.613L18.506,27.542C20.377,31.828 33.842,60.92 59.648,68.42L68.798,59.749C68.591,56.427 60.02,29.999 28.413,18.613ZM36.706,40.713C36.122,40.889 35.516,40.978 34.906,40.978C31.446,40.978 28.599,38.13 28.599,34.67C28.599,31.21 31.446,28.363 34.906,28.363C35.516,28.363 36.122,28.452 36.706,28.628C34.043,29.424 32.205,31.891 32.205,34.67C32.205,37.45 34.043,39.917 36.706,40.713Z" style="fill:rgb(21,178,204);fill-rule:nonzero;"/>
            <ellipse cx="36.706" cy="34.635" rx="4.5" ry="6.043" style="fill:rgb(90,239,255);"/>
            <path d="M55.649,75.113C55.459,75.114 55.272,75.075 55.099,74.999C46.059,71.089 37.857,65.475 30.942,58.463C27.077,54.605 23.612,50.367 20.599,45.813C20.453,45.584 20.376,45.319 20.376,45.047C20.376,44.264 21.021,43.619 21.805,43.619C22.276,43.619 22.719,43.852 22.984,44.242C25.891,48.63 29.234,52.712 32.963,56.427C39.394,62.95 46.977,68.227 55.327,71.992L71.927,55.363C68.171,47.006 62.906,39.413 56.399,32.963C43.463,19.999 26.913,12.406 12.877,12.856C12.592,21.292 15.242,30.885 20.399,39.999C20.524,40.216 20.589,40.463 20.589,40.713C20.589,41.5 19.942,42.147 19.156,42.147C18.643,42.147 18.168,41.872 17.913,41.428C12.199,31.349 9.449,20.713 10.092,11.428C10.138,10.706 10.726,10.127 11.449,10.092C26.52,9.042 44.541,17.035 58.434,30.949C65.434,37.878 71.036,46.089 74.934,55.135C75.161,55.667 75.042,56.288 74.634,56.699L56.663,74.692C56.394,74.962 56.029,75.113 55.649,75.113Z" style="fill:rgb(34,39,57);fill-rule:nonzero;"/>
            <path d="M63.298,80.299C62.92,80.297 62.558,80.145 62.291,79.877L59.384,76.97C59.116,76.702 58.966,76.338 58.966,75.959C58.966,75.175 59.611,74.53 60.395,74.53C60.774,74.53 61.138,74.681 61.406,74.949L63.298,76.849L76.777,63.349L71.37,57.935C71.133,57.672 71.002,57.331 71.002,56.977C71.002,56.194 71.646,55.549 72.43,55.549C72.785,55.549 73.128,55.681 73.391,55.92L79.82,62.349C80.088,62.617 80.239,62.981 80.239,63.36C80.239,63.739 80.088,64.102 79.82,64.37L64.306,79.877C64.037,80.147 63.672,80.299 63.291,80.299L63.298,80.299ZM47.627,87.427C47.249,87.426 46.887,87.274 46.62,87.006L41.791,82.142C41.494,81.871 41.324,81.487 41.324,81.085C41.324,80.301 41.969,79.656 42.753,79.656C43.157,79.656 43.542,79.827 43.813,80.127L46.749,83.07L49.077,71.427C49.186,70.736 49.788,70.222 50.488,70.222C51.272,70.222 51.917,70.867 51.917,71.65C51.917,71.763 51.903,71.875 51.877,71.984L49.02,86.27C48.917,86.785 48.537,87.203 48.034,87.356C47.903,87.4 47.766,87.424 47.627,87.427ZM39.734,79.527C39.734,79.527 39.734,79.527 39.733,79.527C38.95,79.527 38.305,78.882 38.305,78.099C38.305,77.718 38.457,77.353 38.727,77.084C38.995,76.819 39.357,76.67 39.733,76.67C40.517,76.67 41.162,77.315 41.162,78.099C41.162,78.882 40.518,79.527 39.734,79.527ZM36.67,76.427C36.292,76.426 35.93,76.274 35.663,76.006L30.942,71.277C30.654,70.989 30.503,70.591 30.527,70.184L31.242,58.042C31.285,57.289 31.916,56.693 32.67,56.693C33.455,56.693 34.101,57.339 34.101,58.124C34.101,58.151 34.1,58.179 34.099,58.206L33.384,69.699L37.67,73.984C37.94,74.253 38.093,74.618 38.093,74.999C38.093,75.78 37.452,76.424 36.67,76.427ZM75.577,50.427C75.531,50.432 75.484,50.434 75.438,50.434C74.65,50.434 74.002,49.786 74.002,48.999C74.002,48.264 74.567,47.642 75.298,47.57L83.927,45.842L70.648,32.57L59.406,34.285C59.334,34.296 59.261,34.301 59.188,34.301C58.395,34.301 57.743,33.649 57.743,32.856C57.743,32.145 58.267,31.535 58.97,31.428L70.927,29.585C71.378,29.517 71.835,29.668 72.156,29.992L87.87,45.706C88.137,45.974 88.288,46.337 88.288,46.716C88.288,47.388 87.813,47.974 87.155,48.113L75.913,50.363C75.804,50.399 75.691,50.421 75.577,50.427ZM15.242,31.363C14.865,31.364 14.502,31.215 14.235,30.949C13.966,30.681 13.816,30.317 13.816,29.938C13.816,29.559 13.966,29.195 14.235,28.928L28.799,14.342C29.069,14.042 29.455,13.871 29.859,13.871C30.643,13.871 31.288,14.516 31.288,15.299C31.288,15.702 31.118,16.086 30.82,16.356L16.256,30.949C15.986,31.216 15.621,31.366 15.242,31.363ZM34.799,43.113C32.547,43.118 30.385,42.219 28.799,40.62C25.522,37.32 25.522,31.914 28.799,28.613C30.389,27.023 32.549,26.129 34.798,26.129C39.329,26.129 43.101,29.758 43.277,34.285C43.278,35.045 42.672,35.679 41.913,35.713C41.891,35.714 41.869,35.715 41.847,35.715C41.087,35.715 40.453,35.108 40.42,34.349C40.288,31.358 37.791,28.969 34.797,28.969C31.709,28.969 29.169,31.51 29.169,34.598C29.169,37.686 31.709,40.226 34.797,40.226C36.289,40.226 37.722,39.633 38.777,38.578C39.048,38.278 39.434,38.106 39.838,38.106C40.621,38.106 41.266,38.751 41.266,39.535C41.266,39.937 41.096,40.321 40.799,40.592C39.219,42.203 37.055,43.112 34.799,43.113Z" style="fill:rgb(34,39,57);fill-rule:nonzero;"/>
            <path d="M44.776,44.602C45.395,43.983 49.57,47.159 54.094,51.689C58.618,56.22 61.788,60.4 61.169,61.018C60.55,61.636 56.374,58.461 51.85,53.93C47.326,49.4 44.156,45.22 44.776,44.602Z" style="fill:rgb(34,39,57);"/>
            <path d="M85.241,89.999C80.488,90.061 75.948,87.992 72.877,84.363C72.658,85.137 72.519,85.932 72.463,86.734C72.424,87.127 72.225,87.487 71.913,87.727C71.6,87.968 71.202,88.069 70.813,88.006C70.663,88.006 67.12,87.37 65.941,82.499C65.915,82.389 65.901,82.276 65.901,82.163C65.901,81.379 66.547,80.734 67.331,80.734C67.988,80.734 68.565,81.188 68.72,81.827C68.906,82.744 69.324,83.597 69.934,84.306C70.27,82.827 70.884,81.527 72.127,81.192C73.195,80.976 74.293,81.429 74.898,82.334C77.716,85.713 82.025,87.495 86.405,87.091C82.834,79.577 76.263,77.913 76.198,77.899C75.728,77.786 75.345,77.441 75.184,76.984C75.022,76.528 75.103,76.018 75.398,75.634C77.227,73.284 80.213,72.777 82.227,72.67C80.427,67.67 76.513,67.599 76.413,67.599C75.629,67.599 74.984,66.954 74.984,66.17C74.984,65.387 75.629,64.742 76.413,64.742C78.905,64.742 84.041,66.62 85.541,73.884C85.561,73.981 85.572,74.08 85.572,74.178C85.572,74.962 84.927,75.607 84.143,75.607C84.073,75.607 84.003,75.602 83.934,75.592C82.416,75.404 80.874,75.575 79.434,76.092C84.287,78.458 88.013,82.651 89.791,87.749C89.932,88.127 89.906,88.548 89.72,88.906C89.53,89.262 89.197,89.522 88.805,89.62C87.636,89.884 86.44,90.011 85.241,89.999ZM77.006,13.421C77.006,13.178 76.591,12.963 75.934,12.806C75.091,12.611 74.43,11.95 74.234,11.106C74.084,10.449 73.863,10.035 73.62,10.035C73.377,10.035 73.156,10.449 73.006,11.106C72.81,11.95 72.149,12.611 71.306,12.806C70.648,12.956 70.234,13.178 70.234,13.421C70.234,13.663 70.648,13.885 71.306,14.035C72.142,14.228 72.801,14.879 73.006,15.713C73.163,16.378 73.377,16.792 73.62,16.792C73.863,16.792 74.084,16.378 74.234,15.713C74.429,14.871 75.091,14.212 75.934,14.021C76.591,13.885 77.006,13.663 77.006,13.421ZM33.056,82.642C33.056,82.249 32.392,81.927 31.327,81.649C29.967,81.331 28.902,80.261 28.592,78.899C28.342,77.834 27.992,77.17 27.599,77.17C27.206,77.17 26.849,77.834 26.606,78.899C26.292,80.26 25.225,81.328 23.863,81.642C22.799,81.892 22.134,82.249 22.134,82.642C22.134,83.034 22.799,83.356 23.863,83.634C25.224,83.95 26.291,85.016 26.606,86.377C26.849,87.441 27.206,88.113 27.599,88.113C27.992,88.113 28.313,87.441 28.592,86.377C28.904,85.018 29.968,83.95 31.327,83.634C32.392,83.384 33.056,83.034 33.056,82.642ZM90.02,58.506C90.02,58.242 89.577,58.006 88.863,57.842C87.952,57.63 87.239,56.916 87.027,56.006C86.863,55.292 86.627,54.842 86.363,54.842C86.098,54.842 85.863,55.292 85.698,56.006C85.491,56.922 84.777,57.642 83.863,57.856C83.148,58.02 82.705,58.256 82.705,58.52C82.705,58.785 83.148,59.02 83.863,59.185C84.785,59.382 85.516,60.095 85.734,61.013C85.898,61.727 86.134,62.17 86.398,62.17C86.663,62.17 86.898,61.727 87.063,61.013C87.271,60.099 87.985,59.382 88.898,59.17C89.577,59.006 90.02,58.77 90.02,58.506ZM52.063,41.428C51.877,41.428 51.692,41.391 51.52,41.32C51.345,41.249 51.187,41.142 51.056,41.006C50.788,40.74 50.636,40.377 50.634,39.999C50.624,39.906 50.624,39.813 50.634,39.72C50.653,39.628 50.679,39.537 50.713,39.449C50.751,39.364 50.796,39.283 50.849,39.206C50.955,39.052 51.088,38.919 51.241,38.813C51.321,38.761 51.404,38.716 51.491,38.678C51.576,38.641 51.665,38.614 51.756,38.599C52.223,38.508 52.705,38.655 53.041,38.992C53.111,39.055 53.171,39.127 53.22,39.206C53.275,39.281 53.32,39.363 53.356,39.449C53.393,39.536 53.419,39.627 53.434,39.72C53.445,39.813 53.445,39.906 53.434,39.999C53.433,40.377 53.281,40.74 53.013,41.006C52.95,41.075 52.878,41.135 52.799,41.185C52.723,41.239 52.642,41.285 52.556,41.32C52.38,41.389 52.194,41.425 52.006,41.428L52.063,41.428ZM51.349,16.463C51.162,16.463 50.978,16.427 50.806,16.356C50.632,16.283 50.474,16.176 50.341,16.042C50.206,15.913 50.099,15.757 50.027,15.585C49.955,15.41 49.919,15.223 49.92,15.035C49.913,14.942 49.913,14.849 49.92,14.756C49.941,14.664 49.97,14.573 50.006,14.485C50.041,14.4 50.084,14.319 50.134,14.242C50.186,14.164 50.246,14.093 50.313,14.028C50.376,13.959 50.448,13.899 50.527,13.849C50.607,13.797 50.69,13.752 50.777,13.713C50.863,13.68 50.951,13.653 51.041,13.635C51.225,13.598 51.415,13.598 51.599,13.635C51.691,13.654 51.782,13.68 51.87,13.713C51.955,13.752 52.036,13.797 52.113,13.849C52.193,13.9 52.267,13.96 52.334,14.028C52.399,14.094 52.459,14.166 52.513,14.242C52.563,14.319 52.606,14.4 52.641,14.485C52.678,14.572 52.705,14.663 52.72,14.756C52.731,14.849 52.731,14.942 52.72,15.035C52.721,15.223 52.685,15.41 52.613,15.585C52.391,16.117 51.868,16.465 51.291,16.463L51.349,16.463ZM16.449,57.856C15.667,57.853 15.026,57.209 15.026,56.427C15.026,56.05 15.176,55.688 15.442,55.42C15.505,55.351 15.577,55.291 15.656,55.242C15.731,55.187 15.813,55.141 15.899,55.106C15.986,55.069 16.077,55.043 16.17,55.027C16.637,54.936 17.12,55.084 17.456,55.42C17.722,55.688 17.871,56.05 17.871,56.427C17.871,57.209 17.23,57.853 16.449,57.856Z" style="fill:rgb(34,39,57);fill-rule:nonzero;"/>
            <ellipse cx="80.041" cy="25.685" rx="3.921" ry="3.929" style="fill:rgb(21,178,204);"/>
            <path d="M82.055,29.02C80.635,29.024 79.27,28.458 78.27,27.449C76.206,25.366 76.206,21.96 78.27,19.878C79.272,18.881 80.629,18.321 82.043,18.321C84.978,18.321 87.393,20.736 87.393,23.671C87.393,26.601 84.986,29.014 82.055,29.02ZM82.055,21.163C80.681,21.165 79.551,22.296 79.551,23.671C79.551,24.338 79.818,24.979 80.291,25.449C81.269,26.388 82.835,26.388 83.813,25.449C84.292,24.979 84.563,24.335 84.563,23.663C84.563,22.292 83.434,21.163 82.063,21.163C82.06,21.163 82.058,21.163 82.055,21.163Z" style="fill:rgb(34,39,57);fill-rule:nonzero;"/>
            <ellipse cx="20.706" cy="71.456" rx="3.921" ry="3.929" style="fill:rgb(247,147,30);"/>
            <path d="M18.692,74.792C17.273,74.796 15.91,74.23 14.913,73.22C12.842,71.141 12.842,67.728 14.913,65.649C15.914,64.643 17.276,64.077 18.695,64.077C20.114,64.077 21.476,64.643 22.477,65.649C24.541,67.731 24.541,71.137 22.477,73.22C21.477,74.229 20.112,74.795 18.692,74.792ZM18.692,66.934C18.034,66.929 17.401,67.186 16.935,67.649C16.458,68.121 16.19,68.764 16.19,69.434C16.19,70.105 16.458,70.748 16.935,71.22C17.913,72.159 19.478,72.159 20.456,71.22C20.932,70.748 21.2,70.105 21.2,69.434C21.2,68.764 20.932,68.121 20.456,67.649C19.987,67.186 19.351,66.928 18.692,66.934Z" style="fill:rgb(34,39,57);fill-rule:nonzero;"/>
        </g>
        <path d="M148.125,52.93L133.805,52.93L133.805,68L129.305,68L129.305,33.875L150.445,33.875L150.445,37.578L133.805,37.578L133.805,49.25L148.125,49.25L148.125,52.93Z" style="fill-rule:nonzero;"/>
        <path d="M170.016,68C169.766,67.5 169.563,66.609 169.406,65.328C167.391,67.422 164.984,68.469 162.188,68.469C159.688,68.469 157.637,67.762 156.035,66.348C154.434,64.934 153.633,63.141 153.633,60.969C153.633,58.328 154.637,56.277 156.645,54.816C158.652,53.355 161.477,52.625 165.117,52.625L169.336,52.625L169.336,50.633C169.336,49.117 168.883,47.91 167.977,47.012C167.07,46.113 165.734,45.664 163.969,45.664C162.422,45.664 161.125,46.055 160.078,46.836C159.031,47.617 158.508,48.562 158.508,49.672L154.148,49.672C154.148,48.406 154.598,47.184 155.496,46.004C156.395,44.824 157.613,43.891 159.152,43.203C160.691,42.516 162.383,42.172 164.227,42.172C167.148,42.172 169.438,42.902 171.094,44.363C172.75,45.824 173.609,47.836 173.672,50.398L173.672,62.07C173.672,64.398 173.969,66.25 174.563,67.625L174.563,68L170.016,68ZM162.82,64.695C164.18,64.695 165.469,64.344 166.688,63.641C167.906,62.937 168.789,62.023 169.336,60.898L169.336,55.695L165.938,55.695C160.625,55.695 157.969,57.25 157.969,60.359C157.969,61.719 158.422,62.781 159.328,63.547C160.234,64.312 161.398,64.695 162.82,64.695Z" style="fill-rule:nonzero;"/>
        <path d="M195.234,61.273C195.234,60.102 194.793,59.191 193.91,58.543C193.027,57.895 191.488,57.336 189.293,56.867C187.098,56.398 185.355,55.836 184.066,55.18C182.777,54.523 181.824,53.742 181.207,52.836C180.59,51.93 180.281,50.852 180.281,49.602C180.281,47.523 181.16,45.766 182.918,44.328C184.676,42.891 186.922,42.172 189.656,42.172C192.531,42.172 194.863,42.914 196.652,44.398C198.441,45.883 199.336,47.781 199.336,50.094L194.977,50.094C194.977,48.906 194.473,47.883 193.465,47.023C192.457,46.164 191.188,45.734 189.656,45.734C188.078,45.734 186.844,46.078 185.953,46.766C185.063,47.453 184.617,48.352 184.617,49.461C184.617,50.508 185.031,51.297 185.859,51.828C186.688,52.359 188.184,52.867 190.348,53.352C192.512,53.836 194.266,54.414 195.609,55.086C196.953,55.758 197.949,56.566 198.598,57.512C199.246,58.457 199.57,59.609 199.57,60.969C199.57,63.234 198.664,65.051 196.852,66.418C195.039,67.785 192.688,68.469 189.797,68.469C187.766,68.469 185.969,68.109 184.406,67.391C182.844,66.672 181.621,65.668 180.738,64.379C179.855,63.09 179.414,61.695 179.414,60.195L183.75,60.195C183.828,61.648 184.41,62.801 185.496,63.652C186.582,64.504 188.016,64.93 189.797,64.93C191.438,64.93 192.754,64.598 193.746,63.934C194.738,63.27 195.234,62.383 195.234,61.273Z" style="fill-rule:nonzero;"/>
        <path d="M211.102,36.5L211.102,42.641L215.836,42.641L215.836,45.992L211.102,45.992L211.102,61.719C211.102,62.734 211.313,63.496 211.734,64.004C212.156,64.512 212.875,64.766 213.891,64.766C214.391,64.766 215.078,64.672 215.953,64.484L215.953,68C214.813,68.312 213.703,68.469 212.625,68.469C210.688,68.469 209.227,67.883 208.242,66.711C207.258,65.539 206.766,63.875 206.766,61.719L206.766,45.992L202.148,45.992L202.148,42.641L206.766,42.641L206.766,36.5L211.102,36.5Z" style="fill-rule:nonzero;"/>
        <path d="M231.633,52.789C227.773,51.68 224.965,50.316 223.207,48.699C221.449,47.082 220.57,45.086 220.57,42.711C220.57,40.023 221.645,37.801 223.793,36.043C225.941,34.285 228.734,33.406 232.172,33.406C234.516,33.406 236.605,33.859 238.441,34.766C240.277,35.672 241.699,36.922 242.707,38.516C243.715,40.109 244.219,41.852 244.219,43.742L239.695,43.742C239.695,41.68 239.039,40.059 237.727,38.879C236.414,37.699 234.563,37.109 232.172,37.109C229.953,37.109 228.223,37.598 226.98,38.574C225.738,39.551 225.117,40.906 225.117,42.641C225.117,44.031 225.707,45.207 226.887,46.168C228.066,47.129 230.074,48.008 232.91,48.805C235.746,49.602 237.965,50.48 239.566,51.441C241.168,52.402 242.355,53.523 243.129,54.805C243.902,56.086 244.289,57.594 244.289,59.328C244.289,62.094 243.211,64.309 241.055,65.973C238.898,67.637 236.016,68.469 232.406,68.469C230.063,68.469 227.875,68.02 225.844,67.121C223.813,66.223 222.246,64.992 221.145,63.43C220.043,61.867 219.492,60.094 219.492,58.109L224.016,58.109C224.016,60.172 224.777,61.801 226.301,62.996C227.824,64.191 229.859,64.789 232.406,64.789C234.781,64.789 236.602,64.305 237.867,63.336C239.133,62.367 239.766,61.047 239.766,59.375C239.766,57.703 239.18,56.41 238.008,55.496C236.836,54.582 234.711,53.68 231.633,52.789Z" style="fill-rule:nonzero;"/>
        <path d="M265.031,65.492C263.344,67.477 260.867,68.469 257.602,68.469C254.898,68.469 252.84,67.684 251.426,66.113C250.012,64.543 249.297,62.219 249.281,59.141L249.281,42.641L253.617,42.641L253.617,59.023C253.617,62.867 255.18,64.789 258.305,64.789C261.617,64.789 263.82,63.555 264.914,61.086L264.914,42.641L269.25,42.641L269.25,68L265.125,68L265.031,65.492Z" style="fill-rule:nonzero;"/>
        <path d="M288.094,46.531C287.438,46.422 286.727,46.367 285.961,46.367C283.117,46.367 281.188,47.578 280.172,50L280.172,68L275.836,68L275.836,42.641L280.055,42.641L280.125,45.57C281.547,43.305 283.563,42.172 286.172,42.172C287.016,42.172 287.656,42.281 288.094,42.5L288.094,46.531Z" style="fill-rule:nonzero;"/>
        <path d="M300.867,62.117L307.148,42.641L311.578,42.641L302.484,68L299.18,68L289.992,42.641L294.422,42.641L300.867,62.117Z" style="fill-rule:nonzero;"/>
        <path d="M325.969,68.469C322.531,68.469 319.734,67.34 317.578,65.082C315.422,62.824 314.344,59.805 314.344,56.023L314.344,55.227C314.344,52.711 314.824,50.465 315.785,48.488C316.746,46.512 318.09,44.965 319.816,43.848C321.543,42.73 323.414,42.172 325.43,42.172C328.727,42.172 331.289,43.258 333.117,45.43C334.945,47.602 335.859,50.711 335.859,54.758L335.859,56.562L318.68,56.562C318.742,59.062 319.473,61.082 320.871,62.621C322.27,64.16 324.047,64.93 326.203,64.93C327.734,64.93 329.031,64.617 330.094,63.992C331.156,63.367 332.086,62.539 332.883,61.508L335.531,63.57C333.406,66.836 330.219,68.469 325.969,68.469ZM325.43,45.734C323.68,45.734 322.211,46.371 321.023,47.645C319.836,48.918 319.102,50.703 318.82,53L331.523,53L331.523,52.672C331.398,50.469 330.805,48.762 329.742,47.551C328.68,46.34 327.242,45.734 325.43,45.734Z" style="fill-rule:nonzero;"/>
        <path d="M348.867,61.648L354.773,42.641L359.414,42.641L349.219,71.914C347.641,76.133 345.133,78.242 341.695,78.242L340.875,78.172L339.258,77.867L339.258,74.352L340.43,74.445C341.898,74.445 343.043,74.148 343.863,73.555C344.684,72.961 345.359,71.875 345.891,70.297L346.852,67.719L337.805,42.641L342.539,42.641L348.867,61.648Z" style="fill-rule:nonzero;"/>
    </g>
</svg>
