<?xml version="1.0" encoding="UTF-8" standalone="no"?>
<!DOCTYPE svg PUBLIC "-//W3C//DTD SVG 1.1//EN" "http://www.w3.org/Graphics/SVG/1.1/DTD/svg11.dtd">
<svg width="100%" height="100%" viewBox="0 0 400 200" version="1.1" xmlns="http://www.w3.org/2000/svg" xmlns:xlink="http://www.w3.org/1999/xlink" xml:space="preserve" xmlns:serif="http://www.serif.com/" style="fill-rule:evenodd;clip-rule:evenodd;stroke-linejoin:round;stroke-miterlimit:2;">
    <g transform="matrix(1,0,0,1,-600,-1100)">
        <g id="MSELogoOld" transform="matrix(0.3175,0,0,0.309446,-750,13.4461)">
            <path d="M4251.97,3543.31L4425.1,3543.31L4510.84,3954.69L4595.88,3543.31L4712.17,3543.31C4712.17,3543.31 4670.13,3563.1 4645.89,3630.24C4621.64,3697.39 4640.52,3750.13 4640.52,3750.13L4555.51,4125.59L4464.57,4125.59L4359.94,3661.42L4359.94,4125.15L4251.97,4125.15L4251.97,3543.31" style="fill:rgb(129,168,214);"/>
            <path d="M4905.27,3703.94L5016.14,3703.94C5016.14,3703.94 5041.29,3533.28 4837.98,3531.49C4678.95,3530.09 4655.91,3648.54 4655.91,3703.94C4655.91,3822.03 4766.92,3872.49 4818.9,3872.84C4911.28,3873.44 5183.86,3872.84 5183.86,3872.84L5183.86,3777.16L4845.47,3777.16C4845.47,3777.16 4772.84,3774.28 4772.84,3690.35C4772.84,3636.23 4798.27,3617.77 4837.8,3617.72C4912.6,3617.61 4905.27,3700.79 4905.27,3703.94Z" style="fill:rgb(47,122,207);"/>
            <path d="M4851.97,3895.28L5024.41,3895.28C5024.41,3895.28 5035.04,3912.44 5035.04,3963.78C5035.04,4015.12 5022.57,4044.44 5003.15,4072.44C4983.72,4100.44 4928.56,4137.4 4838.98,4137.4C4749.4,4137.4 4703.26,4114.56 4679.53,4080.71C4655.8,4046.86 4648.82,4006.78 4648.82,3992.13L4648.82,3781.89C4648.82,3781.89 4658.71,3812.73 4691.34,3842.13C4723.97,3871.53 4764.57,3885.83 4764.57,3885.83C4764.57,3885.83 4765.75,3961.55 4765.75,3980.32C4765.75,3999.08 4772.04,4051.18 4841.34,4051.18C4910.63,4051.18 4914.06,3994.51 4914.57,3980.32C4915.08,3965.94 4915.04,3923.69 4851.97,3895.28Z" style="fill:rgb(129,168,214);"/>
            <path d="M5046.85,4031.1C5046.85,4031.1 5042.02,4053.53 5022.05,4080.71C5002.08,4107.89 4975.98,4125.59 4975.98,4125.59L5196.85,4125.59L5196.85,4030.51L5046.85,4031.1Z" style="fill:rgb(0,66,140);"/>
            <g transform="matrix(1,0,0,-1,0,7668.31)">
                <path d="M5031.5,4031.1C5031.5,4031.1 5026.23,4053.98 5010.05,4080.71C4992.58,4109.56 4965.98,4125.59 4965.98,4125.59L5196.85,4125.59L5196.85,4030.51L5031.5,4031.1Z" style="fill:rgb(0,66,140);"/>
            </g>
        </g>
    </g>
</svg>
