<?xml version="1.0" encoding="UTF-8" standalone="no"?><!DOCTYPE svg PUBLIC "-//W3C//DTD SVG 1.1//EN" "http://www.w3.org/Graphics/SVG/1.1/DTD/svg11.dtd"><svg width="100%" height="100%" viewBox="0 0 4617 3047" version="1.1" xmlns="http://www.w3.org/2000/svg" xmlns:xlink="http://www.w3.org/1999/xlink" xml:space="preserve" xmlns:serif="http://www.serif.com/" style="fill-rule:evenodd;clip-rule:evenodd;stroke-linejoin:round;stroke-miterlimit:2;"><g><path d="M3106.54,1379.79c-27.556,-9.445 -55.334,-18.195 -83.334,-26.25c4.611,-18.861 8.903,-37.82 12.875,-56.875c63.084,-306.292 21.834,-553.042 -119.041,-634.25c-135.084,-77.917 -356,3.333 -579.167,197.458c-22,19.222 -43.486,38.944 -64.458,59.167c-14.084,-13.473 -28.389,-26.681 -42.917,-39.625c-233.792,-207.625 -468,-295.084 -608.917,-213.625c-134.958,78.125 -175,310.083 -118.125,600.375c5.556,28.75 11.931,57.333 19.125,85.75c-33.125,9.416 -65.166,19.458 -95.833,30.166c-274.125,95.375 -449.208,245.375 -449.208,400.75c0,160.459 187.958,321.417 473.5,419c23.166,7.861 46.5,15.167 70,21.917c-7.611,30.556 -14.389,61.361 -20.334,92.417c-54.166,285.25 -11.833,511.75 122.75,589.375c139.042,80.25 372.375,-2.25 599.542,-200.834c17.958,-15.708 35.958,-32.375 54.167,-49.791c22.722,21.916 46.041,43.194 69.958,63.833c220.083,189.375 437.5,265.875 571.917,188c138.875,-80.375 184,-323.708 125.416,-619.708c-4.444,-22.611 -9.625,-45.681 -15.541,-69.209c16.416,-4.833 32.472,-9.847 48.166,-15.041c296.834,-98.334 490,-257.334 490,-419.959c0,-155.958 -180.75,-306.75 -460.416,-403.041l-0.125,0Z" style="fill:#53c1de;fill-rule:nonzero;"/><path d="M3042.17,2097.79c-14.167,4.708 -28.667,9.208 -43.5,13.625c-36.192,-112.204 -80.002,-221.807 -131.125,-328.042c49.175,-104.819 91.283,-212.81 126.041,-323.25c26.459,7.667 52.209,15.75 76.959,24.292c239.625,82.458 385.791,204.416 385.791,298.416c0,100 -157.875,230.042 -414.166,314.959Zm-106.334,210.75c25.917,130.875 29.584,249.208 12.5,341.666c-15.416,83.125 -46.416,138.542 -84.75,160.75c-81.625,47.209 -256.125,-14.166 -444.333,-176.125c-21.583,-18.583 -43.292,-38.375 -65.125,-59.375c78.466,-86.872 150.979,-178.942 217.042,-275.583c118.005,-9.998 235.185,-28.096 350.708,-54.167c5.278,21.334 9.958,42.167 14.042,62.5l-0.084,0.334Zm-1075.5,494.333c-79.75,28.167 -143.25,28.958 -181.625,6.833c-81.666,-47.125 -115.625,-229.166 -69.291,-472.916c5.555,-28.806 11.847,-57.459 18.875,-85.959c115.045,24.702 231.631,41.588 348.958,50.542c67.995,96.304 142.253,188.029 222.292,274.583c-16.084,15.584 -32.528,30.736 -49.334,45.459c-100.458,87.833 -201.166,150 -289.875,181.458Zm-373.5,-705.708c-126.291,-43.167 -230.541,-99.25 -302.041,-160.417c-64.209,-55 -96.625,-109.625 -96.625,-153.917c0,-94.291 140.583,-214.583 375,-296.291c29.444,-10.25 59.152,-19.598 89.125,-28.042c34.819,111.661 76.98,220.9 126.208,327c-49.841,107.622 -92.517,218.419 -127.75,331.667c-21.5,-6.139 -42.806,-12.806 -63.917,-20Zm125.209,-852.25c-48.667,-248.709 -16.375,-436.334 64.958,-483.334c86.625,-50 278.167,21.334 480.083,200.625c12.917,11.459 25.875,23.459 38.834,35.834c-79.467,86.026 -153.142,177.226 -220.542,273c-116.219,10.422 -231.642,28.362 -345.542,53.708c-6.639,-26.444 -12.569,-53.042 -17.791,-79.792l0,-0.041Zm1117.12,275.791c-25.306,-43.722 -51.542,-86.889 -78.709,-129.5c82.625,10.459 161.75,24.292 236.084,41.292c-23.854,75.667 -51.515,150.081 -82.875,222.958c-23.917,-45.416 -48.75,-90.333 -74.5,-134.75Zm-455.667,-443.625c53.848,58.708 104.704,120.092 152.375,183.917c-101.972,-4.806 -203.986,-4.806 -306.042,0c50.292,-66.333 101.834,-128 153.667,-183.875l0,-0.042Zm-458.333,444.375c-25.417,44.084 -49.792,88.723 -73.125,133.917c-32.209,-76.375 -59.75,-151.5 -82.25,-224.042c73.875,-16.666 152.666,-30.041 234.75,-40.333c-27.556,42.889 -54.042,86.375 -79.459,130.458l0.084,0Zm81.708,661.042c-80.119,-8.698 -159.738,-21.506 -238.542,-38.375c22.875,-73.792 51.042,-150.542 83.959,-228.583c23.416,45.25 47.875,89.916 73.375,134c25.944,44.972 52.986,89.291 81.125,132.958l0.083,0Zm379.75,313.875c-52.5,-56.417 -104.792,-118.917 -155.792,-186.458c49.584,1.972 100.084,2.958 151.5,2.958c52.778,0 104.875,-1.167 156.292,-3.5c-47.462,64.894 -98.223,127.31 -152.083,187l0.083,0Zm527.875,-584.792c32.986,74.354 62.081,150.373 87.167,227.75c-79.78,17.952 -160.446,31.707 -241.667,41.209c27.361,-43.417 53.861,-87.348 79.5,-131.792c26.056,-45.167 51.056,-90.889 75,-137.167Zm-170.833,81.917c-39.223,68.111 -80.625,134.917 -124.209,200.417c-76.833,5.5 -156.208,8.333 -237.125,8.333c-80.916,0 -158.958,-2.5 -234.458,-7.417c-44.694,-65.277 -86.903,-132.18 -126.625,-200.708c-39.722,-68.528 -76.542,-138.083 -110.458,-208.667c34.083,-70.916 70.791,-140.5 110.125,-208.75c39.277,-68.222 81.125,-134.889 125.541,-200c77.042,-5.833 155.959,-8.875 235.792,-8.875c79.833,0 159.25,3.084 236.208,8.917c43.917,64.917 85.584,131.319 125,199.208c39.417,67.889 76.625,137.153 111.625,207.792c-34.583,71.167 -71.68,141.028 -111.291,209.583l-0.125,0.167Zm228.208,-1235.25c86.708,50 120.417,251.667 65.958,516.125c-3.583,17.194 -7.472,34.347 -11.666,51.458c-114.069,-25.859 -229.725,-44.135 -346.209,-54.708c-66.751,-95.86 -139.874,-187.122 -218.875,-273.167c19.445,-18.722 39.292,-36.93 59.542,-54.625c191.167,-166.375 369.833,-232.041 451.25,-185.083Z" style="fill:#fff;fill-rule:nonzero;"/><path d="M2272.25,1551.58c126.86,0 231.25,104.39 231.25,231.25c0,126.86 -104.39,231.25 -231.25,231.25c-126.86,0 -231.25,-104.39 -231.25,-231.25c0,-0.014 0,-0.027 0,-0.041c0,-126.837 104.371,-231.209 231.208,-231.209c0.014,0 0.028,0 0.042,0" style="fill:#53c1de;fill-rule:nonzero;"/></g></svg>