<?xml version="1.0" encoding="UTF-8" standalone="no"?><!DOCTYPE svg PUBLIC "-//W3C//DTD SVG 1.1//EN" "http://www.w3.org/Graphics/SVG/1.1/DTD/svg11.dtd"><svg width="100%" height="100%" viewBox="0 0 3331 2723" version="1.1" xmlns="http://www.w3.org/2000/svg" xmlns:xlink="http://www.w3.org/1999/xlink" xml:space="preserve" xmlns:serif="http://www.serif.com/" style="fill-rule:evenodd;clip-rule:evenodd;stroke-linejoin:round;stroke-miterlimit:2;"><g><ellipse cx="920.833" cy="2678.79" rx="920.833" ry="43.75" style="fill:#d0cde1;"/><path d="M1400,910.042l16.667,-29.167l-83.333,-16.667l-8.334,41.667l12.5,33.333l62.5,-29.166Z" style="fill:#f60948;fill-rule:nonzero;"/><path d="M1400,910.042l16.667,-29.167l-83.333,-16.667l-8.334,41.667l12.5,33.333l62.5,-29.166Z" style="fill-opacity:0.2;fill-rule:nonzero;"/><circle cx="1352.08" cy="782.957" r="108.333" style="fill:#ffb8b8;"/><path d="M1260.42,782.958l-87.5,145.834l129.167,75l66.666,-154.167l-108.333,-66.667Z" style="fill:#ffb8b8;fill-rule:nonzero;"/><path d="M1252.08,953.79l-112.5,-45.833c0,0 -170.833,29.166 -187.5,83.333c-16.666,54.167 -16.666,491.667 -16.666,491.667c0,0 -41.667,108.333 16.666,112.5c0,0 -16.666,25 0,29.166c16.667,4.167 187.5,0 254.167,20.834c66.667,20.833 200,37.5 200,16.666l0,-37.5c0,0 29.167,-29.166 12.5,-79.166c-16.667,-50 -37.5,-158.334 -37.5,-158.334c0,0 125,-275 112.5,-308.333c-12.5,-33.333 -165.112,-136.406 -165.112,-136.406l-76.555,11.406Z" style="fill:#f60948;fill-rule:nonzero;"/><path d="M993.75,1482.96l4.167,33.334l58.333,-70.834l-20.833,0l-41.667,37.5Z" style="fill:#ffb8b8;fill-rule:nonzero;"/><path d="M1252.08,953.79l-120.833,-29.167c0,0 -25,-20.833 -25,-45.833c0,-25 37.5,-62.5 62.5,-87.5c4.397,-4.508 10.453,-7.024 16.75,-6.959c24.75,-0.208 54.75,32.251 54.75,32.251l-33.292,55.541l-1.5,2.458l46.625,79.209Z" style="fill:#f60948;fill-rule:nonzero;"/><path d="M1345.22,904.034l71.446,-23.161c0,0 22.916,89.583 -2.084,93.75c-25,4.167 -162.5,-8.333 -162.5,-8.333l93.138,-62.256Z" style="fill:#f60948;fill-rule:nonzero;"/><path d="M960.417,1603.79l-54.167,308.333c0,0 -20.833,37.5 -12.5,54.167c8.333,16.667 12.5,16.667 0,25c-12.5,8.333 -29.167,0 -25,20.833c2.497,12.352 3.892,24.901 4.167,37.5l-116.667,400c0,0 -75,33.334 -20.833,54.167c54.166,20.833 108.333,37.5 120.833,16.667c12.5,-20.834 0,-45.834 0,-45.834l191.667,-458.333c0,0 29.166,-41.667 29.166,-66.667c0,-25 95.834,-204.166 95.834,-204.166c0,0 4.166,179.166 8.333,191.666c4.167,12.5 -8.333,37.5 -8.333,54.167c0,16.667 -8.334,16.667 0,25c8.333,8.333 8.333,104.167 8.333,104.167c0,0 -50,370.833 -20.833,375c29.166,4.166 112.5,-4.167 112.5,-20.834c0,-16.666 -12.5,-20.833 -12.5,-20.833l54.166,-316.667c0,0 -4.166,-20.833 4.167,-37.5c8.333,-16.666 8.333,-16.666 8.333,-25c0,-8.333 -4.166,-12.5 0,-16.666c2.722,-3.597 4.186,-7.991 4.167,-12.5c-0.019,-4.51 -8.333,-25 -4.167,-29.167c4.167,-4.167 95.834,-316.667 66.667,-354.167c-29.167,-37.5 -433.333,-58.333 -433.333,-58.333Z" style="fill:#2f2e41;fill-rule:nonzero;"/><path d="M1164.58,2482.96l-29.166,66.666c0,0 -66.667,75 -16.667,91.667c50,16.667 66.667,12.5 66.667,12.5c0,0 20.833,4.167 20.833,12.5c0,8.333 166.667,70.833 179.167,16.667c12.5,-54.167 -129.167,-154.167 -129.167,-154.167l0,-50l-91.667,4.167Z" style="fill:#2f2e41;fill-rule:nonzero;"/><path d="M843.189,2513.82l6.309,72.494c0,0 39.174,92.384 -13.531,92.182c-52.704,-0.203 -67.162,-9.482 -67.162,-9.482c0,0 -21.072,-2.716 -23.737,5.179c-2.666,7.896 -180.568,13.8 -175.085,-41.519c5.484,-55.32 171.695,-104.75 171.695,-104.75l15.993,-47.373l85.518,33.269Z" style="fill:#2f2e41;fill-rule:nonzero;"/><path d="M1246.57,812.613c6.692,-0.449 11.154,-7.743 13.006,-14.683c1.851,-6.94 2.323,-14.543 6.103,-20.506c10.358,-16.341 37.292,-9.741 48.229,-25.638c6.727,-9.777 5.319,-25.697 15.03,-31.917c6.132,-3.929 13.949,-1.905 20.706,0.563c26.187,9.639 50.367,24.04 71.316,42.474l8.701,-7.084l10.867,21.726c4.214,-5.081 12.34,-1.141 15.875,4.507c3.536,5.649 5.252,12.868 10.294,16.982c8.035,6.557 20.589,1.003 25.456,-8.506c4.868,-9.508 4.064,-21.133 2.377,-31.838c-4.204,-26.818 -13.162,-52.671 -26.452,-76.341l9.943,-5.966l-12.855,-1.836l4.92,-11.161l-13.466,-0.157l5.317,-9.541c-18.101,6.211 -36.807,-5.166 -54.096,-13.648c-28.92,-14.188 -61.452,-20.997 -92.851,-15.726c-32.515,5.279 -61.349,24.009 -79.39,51.57c-13.691,21.525 -21.596,52.781 -14.752,78.558c6.221,23.431 33.381,27.078 25.722,58.168Z" style="fill:#2f2e41;fill-rule:nonzero;"/><path d="M977.083,974.623c0,0 -25,-4.166 -41.666,29.167c-16.667,33.333 -141.667,300 -79.167,383.333c62.5,83.334 120.833,108.334 120.833,108.334l12.5,4.166l62.5,-66.666l-20.833,-29.167c0,0 0,-29.167 -16.667,-33.333c-16.666,-4.167 -16.666,8.333 -20.833,-8.334c-4.167,-16.666 16.667,-4.166 -4.167,-20.833c-20.833,-16.667 -4.166,-25 -4.166,-25l-8.334,-341.667Z" style="fill:#f60948;fill-rule:nonzero;"/><path d="M1418.75,1530.88l-4.166,33.333l-58.334,-70.833l20.834,0l41.666,37.5Z" style="fill:#ffb8b8;fill-rule:nonzero;"/><path d="M1412.5,1064.21c0,0 58.333,-29.167 75,4.166c16.667,33.334 131.25,283.334 68.75,366.667c-62.5,83.333 -120.833,108.333 -120.833,108.333l-12.5,4.167l-62.5,-66.667l20.833,-29.166c0,0 0,-29.167 16.667,-33.334c16.666,-4.166 16.666,8.334 20.833,-8.333c4.167,-16.667 -16.667,-4.167 4.167,-20.833c20.833,-16.667 4.166,-25 4.166,-25l-14.583,-300Z" style="fill:#f60948;fill-rule:nonzero;"/><path d="M1016.67,1139.21l-45.833,183.334l54.166,66.666l-25,-83.333l16.667,-166.667Z" style="fill-opacity:0.2;fill-rule:nonzero;"/><path d="M1240.25,816.582l-33.292,55.541c-20.916,-7.25 -22.666,-55.791 -21.458,-87.792c24.75,-0.208 54.75,32.251 54.75,32.251Z" style="fill-opacity:0.2;fill-rule:nonzero;"/><rect x="1677.6" y="1165.88" width="1653.13" height="841.667" style="fill:#3f3d56;"/><rect x="1977.51" y="1449.29" width="167.416" height="13.951" style="fill:#f60948;"/><rect x="2200.73" y="1449.29" width="167.416" height="13.951" style="fill:#f60948;"/><rect x="2525.09" y="1578.34" width="167.416" height="13.951" style="fill:#f60948;"/><rect x="2751.8" y="1578.34" width="167.416" height="13.951" style="fill:#f60948;"/><rect x="2427.43" y="1449.29" width="491.784" height="13.951" style="fill:#f60948;"/><rect x="1977.51" y="1578.34" width="491.784" height="13.951" style="fill:#f60948;"/><rect x="1977.51" y="1707.39" width="491.784" height="13.951" style="fill:#f60948;"/><rect x="2577.41" y="1707.39" width="341.807" height="13.951" style="fill:#f60948;"/><path d="M1930.45,1508.18l-58.9,-58.895l58.9,-58.9l11.784,11.783l-47.117,47.117l47.117,47.112l-11.784,11.783Z" style="fill:#f60948;fill-rule:nonzero;"/><path d="M3077.88,1780.24l-11.784,-11.784l47.117,-47.121l-47.117,-47.112l11.784,-11.783l58.9,58.895l-58.9,58.905Z" style="fill:#f60948;fill-rule:nonzero;"/><path d="M3015.88,1659.63l-34.881,115.096l15.95,4.834l34.881,-115.096l-15.95,-4.834Z" style="fill:#f60948;"/><rect x="1917.4" y="0" width="1181.71" height="2722.54" style="fill:none;"/></g></svg>